<svg id="visual" viewBox="0 0 900 600" width="900" height="600" xmlns="http://www.w3.org/2000/svg" xmlns:xlink="http://www.w3.org/1999/xlink" version="1.1"><g stroke-width="1" stroke-linejoin="bevel"><path d="M483 265L493 177L435 239Z" fill="#262626" stroke="#262626"></path><path d="M483 265L562 183L493 177Z" fill="#202020" stroke="#202020"></path><path d="M568 130L460 108L493 177Z" fill="#333333" stroke="#333333"></path><path d="M493 177L460 108L435 239Z" fill="#484848" stroke="#484848"></path><path d="M562 183L568 130L493 177Z" fill="#2d2d2d" stroke="#2d2d2d"></path><path d="M303 286L389 334L435 239Z" fill="#1a1a1a" stroke="#1a1a1a"></path><path d="M435 239L389 334L483 265Z" fill="#414141" stroke="#414141"></path><path d="M389 334L524 366L483 265Z" fill="#333333" stroke="#333333"></path><path d="M483 265L622 319L562 183Z" fill="#414141" stroke="#414141"></path><path d="M389 334L387 360L524 366Z" fill="#131313" stroke="#131313"></path><path d="M373 0L366 85L460 108Z" fill="#484848" stroke="#484848"></path><path d="M460 108L366 85L435 239Z" fill="#000000" stroke="#000000"></path><path d="M389 334L303 286L387 360Z" fill="#000000" stroke="#000000"></path><path d="M524 366L622 319L483 265Z" fill="#000000" stroke="#000000"></path><path d="M562 183L660 229L568 130Z" fill="#131313" stroke="#131313"></path><path d="M366 85L301 172L435 239Z" fill="#131313" stroke="#131313"></path><path d="M622 319L660 229L562 183Z" fill="#0b0b0b" stroke="#0b0b0b"></path><path d="M301 172L303 286L435 239Z" fill="#1a1a1a" stroke="#1a1a1a"></path><path d="M366 85L305 113L301 172Z" fill="#000000" stroke="#000000"></path><path d="M590 0L516 0L568 130Z" fill="#3a3a3a" stroke="#3a3a3a"></path><path d="M568 130L516 0L460 108Z" fill="#484848" stroke="#484848"></path><path d="M366 85L266 0L305 113Z" fill="#414141" stroke="#414141"></path><path d="M516 0L373 0L460 108Z" fill="#333333" stroke="#333333"></path><path d="M708 100L590 0L568 130Z" fill="#3a3a3a" stroke="#3a3a3a"></path><path d="M622 319L723 269L660 229Z" fill="#414141" stroke="#414141"></path><path d="M660 229L708 100L568 130Z" fill="#3a3a3a" stroke="#3a3a3a"></path><path d="M524 366L601 439L622 319Z" fill="#3a3a3a" stroke="#3a3a3a"></path><path d="M622 319L692 370L723 269Z" fill="#484848" stroke="#484848"></path><path d="M513 492L601 439L524 366Z" fill="#000000" stroke="#000000"></path><path d="M807 161L708 100L660 229Z" fill="#3a3a3a" stroke="#3a3a3a"></path><path d="M601 439L692 370L622 319Z" fill="#1a1a1a" stroke="#1a1a1a"></path><path d="M303 286L275 389L387 360Z" fill="#2d2d2d" stroke="#2d2d2d"></path><path d="M387 360L411 478L524 366Z" fill="#333333" stroke="#333333"></path><path d="M211 307L275 389L303 286Z" fill="#414141" stroke="#414141"></path><path d="M203 222L303 286L301 172Z" fill="#333333" stroke="#333333"></path><path d="M275 389L411 478L387 360Z" fill="#414141" stroke="#414141"></path><path d="M206 129L301 172L305 113Z" fill="#262626" stroke="#262626"></path><path d="M206 129L203 222L301 172Z" fill="#202020" stroke="#202020"></path><path d="M411 478L513 492L524 366Z" fill="#484848" stroke="#484848"></path><path d="M203 222L211 307L303 286Z" fill="#1a1a1a" stroke="#1a1a1a"></path><path d="M266 0L206 129L305 113Z" fill="#484848" stroke="#484848"></path><path d="M373 0L266 0L366 85Z" fill="#202020" stroke="#202020"></path><path d="M708 100L695 0L590 0Z" fill="#2d2d2d" stroke="#2d2d2d"></path><path d="M821 406L777 307L692 370Z" fill="#3a3a3a" stroke="#3a3a3a"></path><path d="M692 370L777 307L723 269Z" fill="#484848" stroke="#484848"></path><path d="M723 269L807 161L660 229Z" fill="#202020" stroke="#202020"></path><path d="M708 100L816 64L695 0Z" fill="#0b0b0b" stroke="#0b0b0b"></path><path d="M578 522L660 474L601 439Z" fill="#1a1a1a" stroke="#1a1a1a"></path><path d="M601 439L660 474L692 370Z" fill="#3a3a3a" stroke="#3a3a3a"></path><path d="M522 600L578 522L513 492Z" fill="#484848" stroke="#484848"></path><path d="M513 492L578 522L601 439Z" fill="#414141" stroke="#414141"></path><path d="M211 307L225 418L275 389Z" fill="#262626" stroke="#262626"></path><path d="M275 389L307 537L411 478Z" fill="#131313" stroke="#131313"></path><path d="M777 307L807 161L723 269Z" fill="#3a3a3a" stroke="#3a3a3a"></path><path d="M83 109L133 177L206 129Z" fill="#484848" stroke="#484848"></path><path d="M206 129L133 177L203 222Z" fill="#202020" stroke="#202020"></path><path d="M203 222L77 315L211 307Z" fill="#414141" stroke="#414141"></path><path d="M87 422L183 464L225 418Z" fill="#414141" stroke="#414141"></path><path d="M266 0L192 0L206 129Z" fill="#262626" stroke="#262626"></path><path d="M225 418L307 537L275 389Z" fill="#3a3a3a" stroke="#3a3a3a"></path><path d="M411 478L522 600L513 492Z" fill="#1a1a1a" stroke="#1a1a1a"></path><path d="M807 161L816 64L708 100Z" fill="#131313" stroke="#131313"></path><path d="M225 418L183 464L307 537Z" fill="#484848" stroke="#484848"></path><path d="M87 422L225 418L211 307Z" fill="#262626" stroke="#262626"></path><path d="M381 600L522 600L411 478Z" fill="#202020" stroke="#202020"></path><path d="M578 522L624 600L660 474Z" fill="#000000" stroke="#000000"></path><path d="M806 480L821 406L692 370Z" fill="#1a1a1a" stroke="#1a1a1a"></path><path d="M777 307L900 211L807 161Z" fill="#262626" stroke="#262626"></path><path d="M807 161L900 84L816 64Z" fill="#1a1a1a" stroke="#1a1a1a"></path><path d="M806 480L692 370L660 474Z" fill="#202020" stroke="#202020"></path><path d="M322 600L381 600L307 537Z" fill="#333333" stroke="#333333"></path><path d="M307 537L381 600L411 478Z" fill="#1a1a1a" stroke="#1a1a1a"></path><path d="M900 0L817 0L816 64Z" fill="#131313" stroke="#131313"></path><path d="M816 64L817 0L695 0Z" fill="#1a1a1a" stroke="#1a1a1a"></path><path d="M522 600L624 600L578 522Z" fill="#131313" stroke="#131313"></path><path d="M192 0L83 109L206 129Z" fill="#3a3a3a" stroke="#3a3a3a"></path><path d="M133 177L77 315L203 222Z" fill="#2d2d2d" stroke="#2d2d2d"></path><path d="M189 600L322 600L307 537Z" fill="#3a3a3a" stroke="#3a3a3a"></path><path d="M0 229L77 315L133 177Z" fill="#0b0b0b" stroke="#0b0b0b"></path><path d="M691 600L806 480L660 474Z" fill="#262626" stroke="#262626"></path><path d="M900 302L777 307L821 406Z" fill="#0b0b0b" stroke="#0b0b0b"></path><path d="M900 302L900 211L777 307Z" fill="#2d2d2d" stroke="#2d2d2d"></path><path d="M192 0L106 0L83 109Z" fill="#202020" stroke="#202020"></path><path d="M900 422L900 302L821 406Z" fill="#414141" stroke="#414141"></path><path d="M624 600L691 600L660 474Z" fill="#414141" stroke="#414141"></path><path d="M77 315L87 422L211 307Z" fill="#484848" stroke="#484848"></path><path d="M183 464L189 600L307 537Z" fill="#262626" stroke="#262626"></path><path d="M900 211L900 84L807 161Z" fill="#262626" stroke="#262626"></path><path d="M87 422L114 495L183 464Z" fill="#131313" stroke="#131313"></path><path d="M900 508L900 422L806 480Z" fill="#202020" stroke="#202020"></path><path d="M806 480L900 422L821 406Z" fill="#2d2d2d" stroke="#2d2d2d"></path><path d="M77 315L0 364L87 422Z" fill="#131313" stroke="#131313"></path><path d="M87 422L0 463L114 495Z" fill="#333333" stroke="#333333"></path><path d="M83 109L0 229L133 177Z" fill="#484848" stroke="#484848"></path><path d="M0 76L0 229L83 109Z" fill="#1a1a1a" stroke="#1a1a1a"></path><path d="M114 495L189 600L183 464Z" fill="#000000" stroke="#000000"></path><path d="M900 84L900 0L816 64Z" fill="#333333" stroke="#333333"></path><path d="M0 229L0 301L77 315Z" fill="#484848" stroke="#484848"></path><path d="M106 0L0 76L83 109Z" fill="#0b0b0b" stroke="#0b0b0b"></path><path d="M0 301L0 364L77 315Z" fill="#0b0b0b" stroke="#0b0b0b"></path><path d="M114 495L88 600L189 600Z" fill="#414141" stroke="#414141"></path><path d="M832 600L900 508L806 480Z" fill="#3a3a3a" stroke="#3a3a3a"></path><path d="M691 600L832 600L806 480Z" fill="#262626" stroke="#262626"></path><path d="M106 0L0 0L0 76Z" fill="#3a3a3a" stroke="#3a3a3a"></path><path d="M0 364L0 463L87 422Z" fill="#2d2d2d" stroke="#2d2d2d"></path><path d="M0 600L88 600L114 495Z" fill="#000000" stroke="#000000"></path><path d="M832 600L900 600L900 508Z" fill="#484848" stroke="#484848"></path><path d="M0 463L0 600L114 495Z" fill="#000000" stroke="#000000"></path></g></svg>